<svg width="15" height="12" viewBox="0 0 15 12" fill="none" xmlns="http://www.w3.org/2000/svg">
<path d="M6.05509 6.00254L11.6666 1.51317C11.8211 1.38985 11.9061 1.22498 11.9061 1.04917C11.9061 0.873268 11.8211 0.708488 11.6666 0.584976L11.1749 0.191805C11.0206 0.0680976 10.8144 0 10.5946 0C10.3749 0 10.1689 0.0680976 10.0145 0.191805L3.33314 5.53678C3.17814 5.66068 3.09327 5.82624 3.09388 6.00224C3.09327 6.17902 3.17802 6.34439 3.33314 6.46839L10.0083 11.8082C10.1627 11.9319 10.3686 12 10.5885 12C10.8083 12 11.0142 11.9319 11.1688 11.8082L11.6603 11.415C11.9802 11.1591 11.9802 10.7425 11.6603 10.4867L6.05509 6.00254Z" fill="white"/>
</svg>
