<svg width="65" height="65" viewBox="0 0 65 65" fill="none" xmlns="http://www.w3.org/2000/svg">
<path d="M51.4584 8.125C49.3043 8.12737 47.239 8.98415 45.7158 10.5074C44.1926 12.0306 43.3358 14.0958 43.3334 16.25V27.8333L9.46869 8.48196C9.05681 8.24663 8.59035 8.1236 8.11599 8.12519C7.64163 8.12678 7.17601 8.25294 6.76572 8.49103C6.35544 8.72912 6.01488 9.0708 5.77814 9.48187C5.5414 9.89293 5.41678 10.359 5.41675 10.8333V54.1667C5.41735 54.6408 5.54233 55.1065 5.77921 55.5172C6.01608 55.928 6.35657 56.2694 6.76666 56.5073C7.17676 56.7453 7.64211 56.8716 8.11625 56.8734C8.59039 56.8753 9.05672 56.7528 9.46869 56.518L43.3334 37.1667V48.75C43.3334 50.9049 44.1894 52.9715 45.7132 54.4952C47.2369 56.019 49.3035 56.875 51.4584 56.875C53.6133 56.875 55.6799 56.019 57.2037 54.4952C58.7274 52.9715 59.5834 50.9049 59.5834 48.75V16.25C59.5811 14.0958 58.7243 12.0306 57.201 10.5074C55.6778 8.98415 53.6126 8.12737 51.4584 8.125ZM10.8334 49.4999V15.5001L40.5828 32.5L10.8334 49.4999ZM54.1668 48.75C54.1668 49.4683 53.8814 50.1572 53.3735 50.6651C52.8656 51.173 52.1767 51.4583 51.4584 51.4583C50.7401 51.4583 50.0512 51.173 49.5433 50.6651C49.0354 50.1572 48.7501 49.4683 48.7501 48.75V16.25C48.7501 15.5317 49.0354 14.8428 49.5433 14.3349C50.0512 13.827 50.7401 13.5417 51.4584 13.5417C52.1767 13.5417 52.8656 13.827 53.3735 14.3349C53.8814 14.8428 54.1668 15.5317 54.1668 16.25V48.75Z" fill="white"/>
</svg>
