<svg width="65" height="72" viewBox="0 0 65 72" fill="none" xmlns="http://www.w3.org/2000/svg">
<path d="M10.2105 1C7.76774 1 5.42501 1.97039 3.6977 3.6977C1.97039 5.42501 1 7.76774 1 10.2105V61.7895C1 64.2323 1.97039 66.575 3.6977 68.3023C5.42501 70.0296 7.76774 71 10.2105 71H17.5789C20.0217 71 22.3645 70.0296 24.0918 68.3023C25.8191 66.575 26.7895 64.2323 26.7895 61.7895V10.2105C26.7895 7.76774 25.8191 5.42501 24.0918 3.6977C22.3645 1.97039 20.0217 1 17.5789 1H10.2105ZM23.1053 10.2105V61.7895C23.1053 63.2551 22.523 64.6608 21.4866 65.6972C20.4503 66.7336 19.0446 67.3158 17.5789 67.3158H10.2105C8.74486 67.3158 7.33922 66.7336 6.30283 65.6972C5.26645 64.6608 4.68421 63.2551 4.68421 61.7895V10.2105C4.68421 8.74486 5.26645 7.33922 6.30283 6.30283C7.33922 5.26645 8.74486 4.68421 10.2105 4.68421H17.5789C19.0446 4.68421 20.4503 5.26645 21.4866 6.30283C22.523 7.33922 23.1053 8.74486 23.1053 10.2105Z" fill="white" stroke="white" stroke-width="2"/>
<path d="M47.0526 71H54.421C55.6305 71 56.8282 70.7618 57.9457 70.2989C59.0632 69.836 60.0785 69.1576 60.9338 68.3023C61.7891 67.447 62.4675 66.4317 62.9304 65.3142C63.3933 64.1967 63.6315 62.999 63.6315 61.7895V10.2105C63.6315 9.00098 63.3933 7.80328 62.9304 6.68581C62.4675 5.56834 61.7891 4.55298 60.9338 3.6977C60.0785 2.84242 59.0632 2.16398 57.9457 1.70111C56.8282 1.23824 55.6305 1 54.421 1H47.0526C44.6098 1 42.2671 1.97039 40.5397 3.6977C38.8124 5.42501 37.842 7.76774 37.842 10.2105V61.7895C37.842 64.2323 38.8124 66.575 40.5397 68.3023C42.2671 70.0296 44.6098 71 47.0526 71ZM41.5263 10.2105C41.5263 8.74486 42.1085 7.33922 43.1449 6.30283C44.1813 5.26645 45.5869 4.68421 47.0526 4.68421H54.421C55.8867 4.68421 57.2923 5.26645 58.3287 6.30283C59.3651 7.33922 59.9473 8.74486 59.9473 10.2105V61.7895C59.9473 63.2551 59.3651 64.6608 58.3287 65.6972C57.2923 66.7336 55.8867 67.3158 54.421 67.3158H47.0526C45.5869 67.3158 44.1813 66.7336 43.1449 65.6972C42.1085 64.6608 41.5263 63.2551 41.5263 61.7895V10.2105Z" fill="white" stroke="white" stroke-width="2"/>
</svg>
