<svg width="70" height="70" viewBox="0 0 70 70" fill="none" xmlns="http://www.w3.org/2000/svg">
<path d="M61.7253 27.9488L14.5123 1.07801C9.50413 -1.78113 4.39819 1.34576 4.39819 6.96858V63.064C4.39819 67.8277 7.49947 70 10.3819 70C11.7393 70 13.1223 69.5716 14.496 68.7357L61.9209 39.7066C64.3051 38.2422 65.6438 36.0745 65.6019 33.7579C65.5623 31.4389 64.1514 29.3201 61.7253 27.9488ZM58.7428 34.5215L11.3202 63.5437C11.0012 63.7392 10.7498 63.837 10.5775 63.8859C10.5309 63.7136 10.4843 63.4482 10.4843 63.064V6.97091C10.4843 6.39349 10.5891 6.10245 10.5891 6.03028C10.7754 6.04192 11.1013 6.13738 11.5111 6.37021L58.7172 33.241C59.2992 33.5739 59.4715 33.8626 59.5274 33.7998C59.4971 33.8789 59.2992 34.1746 58.7428 34.5215Z" fill="white"/>
</svg>
