<svg width="65" height="65" viewBox="0 0 65 65" fill="none" xmlns="http://www.w3.org/2000/svg">
<path d="M13.5416 8.125C15.6957 8.12737 17.761 8.98415 19.2842 10.5074C20.8074 12.0306 21.6642 14.0958 21.6666 16.25V27.8333L55.5313 8.48196C55.9432 8.24663 56.4096 8.1236 56.884 8.12519C57.3584 8.12678 57.824 8.25294 58.2343 8.49103C58.6446 8.72912 58.9851 9.0708 59.2219 9.48187C59.4586 9.89293 59.5832 10.359 59.5833 10.8333V54.1667C59.5827 54.6408 59.4577 55.1065 59.2208 55.5172C58.9839 55.928 58.6434 56.2694 58.2333 56.5073C57.8232 56.7453 57.3579 56.8716 56.8838 56.8734C56.4096 56.8753 55.9433 56.7528 55.5313 56.518L21.6666 37.1667V48.75C21.6666 50.9049 20.8106 52.9715 19.2868 54.4952C17.7631 56.019 15.6965 56.875 13.5416 56.875C11.3867 56.875 9.32007 56.019 7.79634 54.4952C6.27261 52.9715 5.41658 50.9049 5.41658 48.75V16.25C5.41895 14.0958 6.27573 12.0306 7.79895 10.5074C9.32217 8.98415 11.3874 8.12737 13.5416 8.125ZM54.1666 49.4999V15.5001L24.4172 32.5L54.1666 49.4999ZM10.8332 48.75C10.8332 49.4683 11.1186 50.1572 11.6265 50.6651C12.1344 51.173 12.8233 51.4583 13.5416 51.4583C14.2599 51.4583 14.9488 51.173 15.4567 50.6651C15.9646 50.1572 16.2499 49.4683 16.2499 48.75V16.25C16.2499 15.5317 15.9646 14.8428 15.4567 14.3349C14.9488 13.827 14.2599 13.5417 13.5416 13.5417C12.8233 13.5417 12.1344 13.827 11.6265 14.3349C11.1186 14.8428 10.8332 15.5317 10.8332 16.25V48.75Z" fill="white"/>
</svg>
